# xmcd CD database file
#
# Track frame offsets:
#	150
#	13587
#	24685
#	36150
#	49060
#	61087
#	76842
#	88992
#	101417
#	112992
#	131262
#	144277
#	162920
#	174709
#	182809
#	200209
#	212530
#	229770
#	244972
#	255565
#	271105
#	283685
#	294567
#	306932
#	321270
#
# Disc length: 4564 seconds
#
# Revision: 3
# Processed by: cddbd v1.5.2PL0 Copyright (c) Steve Scherf et al.
# Submitted via: CDex 1.50
#
DISCID=6411d219
DTITLE=Various Artist - Country Top 100 Part 3
DYEAR=1996
DGENRE=Country
TTITLE0=Lynn Anderson - Rose Garden
TTITLE1=Jim Croce - I Have To Say I Love You In A Song
TTITLE2=Kenny Rogers - Me And Bobby McGee
TTITLE3=Pati Page - Tennessee Waltz
TTITLE4=Freddy Fender - Wasted Days Wasted Nights
TTITLE5=Billie Jo Spears - Blanket On The Ground
TTITLE6=Dolly Parton - Makin' Believe
TTITLE7=Don Williams - You're My Best Friend
TTITLE8=Telly Savalas - Some Broken Hards Never Mend
TTITLE9=Don McLean - American Pie
TTITLE10=Hank Locklin - Please Help Me, I'm Falling
TTITLE11=John Denver - Rocky Mountain High
TTITLE12=Brenda Lee - I'm Sorry
TTITLE13=Andy Tielman - He Good Lookin'
TTITLE14=Pussycat - Smile
TTITLE15=Johnny Cash - Ring Of Fire
TTITLE16=Trisha Yearwood - The Song Remembers When
TTITLE17=Billie Ray Cyrus - Eachy Breaky Heart
TTITLE18=Teddy Bears - To Know Him Is To Love Hiim
TTITLE19=Ennio Morricone - The Man With The Harmonica
TTITLE20=Small Faces - Itchycoo Park
TTITLE21=Don Gibson - Oh Lonesome Me
TTITLE22=Olivia Newton John - I Never Knew Love
TTITLE23=C.Jackson and J.Starling and E. Harris - Don't Let Your Love Die
TTITLE24=Lynyrd Skynyrd - Sweet Home Alabama
EXTD=YEAR: 1996
EXTT0=
EXTT1=
EXTT2=
EXTT3=
EXTT4=
EXTT5=
EXTT6=
EXTT7=
EXTT8=
EXTT9=
EXTT10=
EXTT11=
EXTT12=
EXTT13=
EXTT14=
EXTT15=
EXTT16=
EXTT17=
EXTT18=
EXTT19=
EXTT20=
EXTT21=
EXTT22=
EXTT23=
EXTT24=
PLAYORDER=
